<?xml version="1.0" standalone="no"?>
<!DOCTYPE svg PUBLIC "-//W3C//DTD SVG 20010904//EN"
 "http://www.w3.org/TR/2001/REC-SVG-20010904/DTD/svg10.dtd">
<svg version="1.0" xmlns="http://www.w3.org/2000/svg"
 width="882.000000pt" height="881.000000pt" viewBox="0 0 882.000000 881.000000"
 preserveAspectRatio="xMidYMid meet">
<metadata>
Created by potrace 1.16, written by Peter Selinger 2001-2019
</metadata>
<g transform="translate(0.000000,881.000000) scale(0.100000,-0.100000)"
fill="#000000" stroke="none">
<path d="M0 4405 l0 -4405 4410 0 4410 0 0 4405 0 4405 -4410 0 -4410 0 0
-4405z m5513 1103 c-38 -40 -92 -106 -119 -147 -56 -85 -61 -121 -26 -211 41
-106 21 -272 -50 -417 -41 -83 -147 -193 -236 -245 -35 -20 -58 -39 -53 -43 6
-3 17 -3 24 1 6 4 9 4 5 -1 -4 -4 14 -23 40 -41 68 -49 125 -48 229 6 93 48
93 48 -72 -72 -71 -52 -390 -285 -707 -517 l-577 -422 -285 1 c-165 1 -286 5
-286 10 0 5 36 155 80 332 44 178 82 333 85 345 3 14 118 105 344 271 l338
250 169 5 c169 4 255 20 286 50 7 8 25 21 40 31 38 25 79 113 85 185 5 49 2
66 -15 95 l-21 35 387 285 c213 156 391 285 396 285 5 1 -22 -32 -61 -71z
m-2196 -57 c-88 -93 -153 -187 -163 -238 -4 -22 3 -47 29 -99 72 -142 92 -238
84 -407 -3 -72 -14 -159 -26 -213 l-22 -90 -192 -141 c-106 -77 -397 -290
-647 -473 -250 -183 -522 -383 -605 -443 -139 -102 -146 -106 -99 -56 58 62
78 94 70 115 -4 11 -45 14 -231 14 l-225 0 7 28 c4 15 43 173 87 351 l81 324
324 238 c179 131 326 237 327 236 2 -1 -40 -171 -91 -377 -52 -206 -95 -381
-95 -388 0 -18 213 -15 288 5 173 45 307 175 393 381 41 99 96 313 111 434 17
138 -6 251 -64 314 l-19 21 68 49 c37 27 207 151 377 276 171 126 312 228 314
228 2 0 -34 -40 -81 -89z m4216 6 c-84 -88 -141 -168 -164 -230 -13 -36 -12
-41 23 -110 63 -123 79 -188 85 -330 5 -109 2 -148 -17 -250 -20 -102 -28
-126 -49 -145 -23 -20 -1580 -1162 -1584 -1162 -1 0 25 29 60 65 66 69 84 102
62 116 -8 5 -112 9 -232 9 -203 0 -218 1 -213 18 10 30 77 316 79 335 1 10
-39 59 -102 121 l-105 104 -65 -46 -66 -46 68 64 c172 159 404 458 458 589 13
29 70 245 129 480 l106 426 398 3 c442 3 498 -3 661 -67 153 -60 168 -35 -166
-281 -160 -118 -299 -219 -308 -224 -9 -5 12 21 47 59 34 37 62 76 62 85 0 22
-43 30 -165 30 l-91 0 -32 -137 c-18 -76 -37 -154 -42 -175 -9 -33 -44 -61
-363 -296 -193 -143 -360 -269 -370 -280 -15 -16 -15 -21 -3 -31 15 -13 16
-28 2 -50 -6 -10 -5 -12 2 -7 8 5 12 -1 12 -16 0 -19 -2 -20 -10 -8 -8 11 -9
6 -5 -18 4 -24 2 -32 -6 -26 -8 4 -9 3 -5 -5 10 -15 29 -3 22 15 -3 7 -1 16 3
19 5 2 12 21 15 40 4 19 15 39 24 44 9 5 156 111 326 235 171 124 311 224 313
222 2 -1 -40 -174 -92 -385 -52 -210 -95 -384 -95 -386 0 -11 210 -4 271 9
187 40 331 180 419 409 40 103 87 290 102 405 18 136 -6 255 -63 318 -19 20
-17 21 359 297 207 152 379 277 381 277 2 0 -32 -38 -76 -83z m-4798 -15 c94
-26 252 -99 239 -111 -7 -6 -519 -381 -594 -435 -8 -6 13 20 48 58 34 38 62
77 62 86 0 22 -43 30 -165 30 l-91 0 -43 -174 -43 -173 -61 -45 c-34 -25 -260
-190 -502 -368 -242 -178 -456 -335 -475 -349 -19 -14 13 24 71 84 186 194
330 390 384 523 14 34 68 236 120 449 53 214 101 403 106 421 l11 33 426 -3
c404 -4 431 -5 507 -26z m2085 7 c146 -14 331 -58 330 -77 0 -4 -29 -27 -63
-52 -34 -24 -181 -133 -327 -241 -146 -107 -272 -199 -280 -204 -8 -5 8 16 36
46 54 57 88 112 77 123 -4 3 -62 6 -129 6 l-123 0 -9 -32 c-5 -18 -24 -95 -43
-171 l-33 -138 -251 -183 c-318 -232 -826 -605 -844 -620 -8 -6 35 40 96 102
197 199 329 369 398 513 24 50 63 191 141 505 l108 435 415 -2 c229 -1 454 -5
501 -10z m-1460 -1043 c0 -3 -32 -42 -72 -88 -67 -77 -183 -230 -288 -378
-162 -229 -437 -415 -718 -486 -93 -24 -274 -44 -260 -29 7 7 1331 983 1336
984 1 1 2 -1 2 -3z m4210 0 c0 -3 -43 -55 -95 -117 -52 -62 -143 -180 -202
-263 -226 -318 -450 -484 -775 -571 -98 -27 -281 -46 -263 -28 6 6 282 210
615 455 333 244 630 462 660 485 58 44 60 45 60 39z m-2116 -28 c-168 -190
-214 -264 -274 -438 -105 -309 -343 -475 -749 -526 -154 -19 -258 -53 -451
-144 -80 -38 -135 -63 -124 -54 12 8 79 58 150 111 71 53 273 202 449 331 176
130 412 303 524 386 331 245 483 356 489 356 3 0 -3 -10 -14 -22z"/>
<path d="M4147 4263 c-5 -8 -71 -266 -106 -416 l-9 -39 211 4 c195 3 216 5
261 26 114 52 165 126 174 252 6 87 -12 124 -75 152 -39 17 -73 21 -248 25
-114 2 -205 1 -208 -4z"/>
</g>
</svg>
